<svg width="12cm" height="5.25cm" viewBox="0 0 1200 400"
xmlns="http://www.w3.org/2000/svg" version="1.1"> 
<path d="M 200.0 200.0 A 150.0 75.0 20.0 0 0 320.0 150.0" fill="none" stroke="#0f0f0f" />
<path d="M 200.0 200.0 A 150.0 75.0 20.0 0 1 320.0 150.0" fill="none" stroke="#0f0f0f" />
<path d="M 200.0 200.0 A 150.0 75.0 20.0 1 0 320.0 150.0" fill="none" stroke="#0f0f0f" />
<path d="M 200.0 200.0 A 150.0 75.0 20.0 1 1 320.0 150.0" fill="none" stroke="#0f0f0f" /> 
<path d="M 7.792187189850864 54.84294879015217 L 346.08153067277794 177.9702003873929 M 212.8489739805096 17.738849406252157 L 141.02474388211917 215.07429977129294" fill="none" stroke="#0f0f0f" />
<path d="M 173.91846932722206 172.0297996126071 L 512.2078128101491 295.15705120984785 M 378.9752561178808 134.92570022870706 L 307.15102601949036 332.26115059374786" fill="none" stroke="#0f0f0f" />
<path d="M 173.91846932722206 172.0297996126071 L 512.2078128101491 295.15705120984785 M 378.9752561178808 134.92570022870706 L 307.15102601949036 332.26115059374786" fill="none" stroke="#0f0f0f" />
<path d="M 7.792187189850864 54.84294879015217 L 346.08153067277794 177.9702003873929 M 212.8489739805096 17.738849406252157 L 141.02474388211917 215.07429977129294" fill="none" stroke="#0f0f0f" /> 
</svg>
